<?xml version="1.0" encoding="utf-8"?>
<!-- Generator: Adobe Illustrator 17.1.0, SVG Export Plug-In . SVG Version: 6.00 Build 0)  -->
<!DOCTYPE svg PUBLIC "-//W3C//DTD SVG 1.1//EN" "http://www.w3.org/Graphics/SVG/1.1/DTD/svg11.dtd">
<svg version="1.1" id="Layer_1" xmlns="http://www.w3.org/2000/svg" xmlns:xlink="http://www.w3.org/1999/xlink" x="0px" y="0px"
	 viewBox="0 0 792 215.7" enable-background="new 0 0 792 215.7" xml:space="preserve">
<g>
	<g>
		<path fill="#999999" d="M100,120.7c0,2.9-2.4,5.3-5.3,5.3c-2.9,0-5.3-2.4-5.3-5.3c0-2.9,2.4-5.3,5.3-5.3
			C97.6,115.4,100,117.8,100,120.7z"/>
		<path fill="#999999" d="M115.1,115.6c0,2.9-2.4,5.3-5.3,5.3c-2.9,0-5.3-2.4-5.3-5.3c0-2.9,2.4-5.3,5.3-5.3
			C112.8,110.3,115.1,112.7,115.1,115.6z"/>
		<path fill="#999999" d="M87.7,114.4c0,2.9-2.4,5.3-5.3,5.3c-2.9,0-5.3-2.4-5.3-5.3c0-2.9,2.4-5.3,5.3-5.3
			C85.3,109.1,87.7,111.4,87.7,114.4z"/>
		<path fill="#999999" d="M101.8,107.3c0,2.9-2.4,5.3-5.3,5.3c-2.9,0-5.3-2.4-5.3-5.3c0-2.9,2.4-5.3,5.3-5.3
			C99.5,102,101.8,104.4,101.8,107.3z"/>
		<path fill="#999999" d="M111.9,94.3c0,2.9-2.4,5.3-5.3,5.3c-2.9,0-5.3-2.4-5.3-5.3c0-2.9,2.4-5.3,5.3-5.3
			C109.6,89,111.9,91.4,111.9,94.3z"/>
		<path fill="#999999" d="M117.2,138.1c0,2.9-2.4,5.3-5.3,5.3c-2.9,0-5.3-2.4-5.3-5.3c0-2.9,2.4-5.3,5.3-5.3
			C114.8,132.8,117.2,135.2,117.2,138.1z"/>
		<path fill="#999999" d="M87.7,145.5c0,2.9-2.4,5.3-5.3,5.3c-2.9,0-5.3-2.4-5.3-5.3c0-2.9,2.4-5.3,5.3-5.3
			C85.3,140.2,87.7,142.6,87.7,145.5z"/>
		<path fill="#999999" d="M101.8,154.6c0,2.9-2.4,5.3-5.3,5.3c-2.9,0-5.3-2.4-5.3-5.3c0-2.9,2.4-5.3,5.3-5.3
			C99.5,149.4,101.8,151.7,101.8,154.6z"/>
		<path fill="#999999" d="M112.1,163.8c0,2.9-2.4,5.3-5.3,5.3c-2.9,0-5.3-2.4-5.3-5.3c0-2.9,2.4-5.3,5.3-5.3
			C109.7,158.5,112.1,160.9,112.1,163.8z"/>
		<path fill="#999999" d="M86.1,169.7c0,2.9-2.4,5.3-5.3,5.3c-2.9,0-5.3-2.4-5.3-5.3c0-2.9,2.4-5.3,5.3-5.3
			C83.7,164.5,86.1,166.8,86.1,169.7z"/>
		<path fill="#999999" d="M127.6,147.7c0,2.9-2.4,5.3-5.3,5.3c-2.9,0-5.3-2.4-5.3-5.3c0-2.9,2.4-5.3,5.3-5.3
			C125.3,142.4,127.6,144.8,127.6,147.7z"/>
		<path fill="#999999" d="M101.9,75.9c0,2.9-2.4,5.3-5.3,5.3c-2.9,0-5.3-2.4-5.3-5.3c0-2.9,2.4-5.3,5.3-5.3
			C99.5,70.6,101.9,72.9,101.9,75.9z"/>
		<path fill="#999999" d="M74.8,164.5c0,2.9-2.4,5.3-5.3,5.3c-2.9,0-5.3-2.4-5.3-5.3c0-2.9,2.4-5.3,5.3-5.3
			C72.4,159.2,74.8,161.5,74.8,164.5z"/>
		<path fill="#999999" d="M78.2,30c0,2.9-2.4,5.3-5.3,5.3c-2.9,0-5.3-2.4-5.3-5.3c0-2.9,2.4-5.3,5.3-5.3
			C75.8,24.7,78.2,27.1,78.2,30z"/>
		<path fill="#999999" d="M67.6,151.3c0,2.9-2.4,5.3-5.3,5.3c-2.9,0-5.3-2.4-5.3-5.3c0-2.9,2.4-5.3,5.3-5.3
			C65.3,146,67.6,148.4,67.6,151.3z"/>
		<path fill="#999999" d="M55,118c0,2.9-2.4,5.3-5.3,5.3c-2.9,0-5.3-2.4-5.3-5.3c0-2.9,2.4-5.3,5.3-5.3C52.6,112.8,55,115.1,55,118z
			"/>
		<path fill="#999999" d="M60.2,90.6c0,2.9-2.4,5.3-5.3,5.3c-2.9,0-5.3-2.4-5.3-5.3c0-2.9,2.4-5.3,5.3-5.3
			C57.9,85.3,60.2,87.7,60.2,90.6z"/>
		<path fill="#999999" d="M87.7,73.7c0,2.9-2.4,5.3-5.3,5.3c-2.9,0-5.3-2.4-5.3-5.3c0-2.9,2.4-5.3,5.3-5.3
			C85.3,68.5,87.7,70.8,87.7,73.7z"/>
		<path fill="#999999" d="M76.3,59.8c0,2.9-2.4,5.3-5.3,5.3c-2.9,0-5.3-2.3-5.3-5.3c0-2.9,2.4-5.3,5.3-5.3
			C74,54.5,76.3,56.9,76.3,59.8z"/>
		<path fill="#999999" d="M87.7,95.9c0,2.9-2.4,5.3-5.3,5.3c-2.9,0-5.3-2.4-5.3-5.3c0-2.9,2.4-5.3,5.3-5.3
			C85.3,90.6,87.7,93,87.7,95.9z"/>
		<path fill="#999999" d="M115.1,72.2c0,2.9-2.4,5.3-5.3,5.3c-2.9,0-5.3-2.4-5.3-5.3c0-2.9,2.4-5.3,5.3-5.3
			C112.7,66.9,115.1,69.2,115.1,72.2z"/>
		<path fill="#999999" d="M143.8,141.4c0,2.9-2.4,5.3-5.3,5.3c-2.9,0-5.3-2.4-5.3-5.3c0-2.9,2.4-5.3,5.3-5.3
			C141.4,136.1,143.8,138.5,143.8,141.4z"/>
		<path fill="#999999" d="M120.9,101.7c0,2.9-2.4,5.3-5.3,5.3c-2.9,0-5.3-2.4-5.3-5.3c0-2.9,2.4-5.3,5.3-5.3
			C118.5,96.4,120.9,98.8,120.9,101.7z"/>
		<path fill="#999999" d="M135.7,85.3c0,2.9-2.4,5.3-5.3,5.3c-2.9,0-5.3-2.3-5.3-5.3c0-2.9,2.4-5.3,5.3-5.3
			C133.3,80.1,135.7,82.4,135.7,85.3z"/>
		<path fill="#999999" d="M146,121.6c0,2.9-2.4,5.3-5.3,5.3c-2.9,0-5.3-2.4-5.3-5.3c0-2.9,2.4-5.3,5.3-5.3
			C143.6,116.3,146,118.7,146,121.6z"/>
		<path fill="#999999" d="M137.8,155.5c0,2.9-2.4,5.3-5.3,5.3c-2.9,0-5.3-2.4-5.3-5.3c0-2.9,2.4-5.3,5.3-5.3
			C135.4,150.2,137.8,152.6,137.8,155.5z"/>
		<path fill="#999999" d="M117.7,148.1c0,2.9-2.4,5.3-5.3,5.3c-2.9,0-5.3-2.4-5.3-5.3c0-2.9,2.4-5.3,5.3-5.3
			C115.4,142.8,117.7,145.2,117.7,148.1z"/>
		<path fill="#999999" d="M125.1,158.5c0,2.9-2.4,5.3-5.3,5.3c-2.9,0-5.3-2.4-5.3-5.3c0-2.9,2.4-5.3,5.3-5.3
			C122.7,153.2,125.1,155.6,125.1,158.5z"/>
		<path fill="#999999" d="M130.4,134.7c0,2.9-2.4,5.3-5.3,5.3c-2.9,0-5.3-2.4-5.3-5.3c0-2.9,2.4-5.3,5.3-5.3
			C128,129.4,130.4,131.8,130.4,134.7z"/>
		<path fill="#999999" d="M103.2,140.2c0,2.9-2.4,5.3-5.3,5.3c-2.9,0-5.3-2.4-5.3-5.3c0-2.9,2.4-5.3,5.3-5.3
			C100.8,134.9,103.2,137.3,103.2,140.2z"/>
		<path fill="#999999" d="M72.9,111.2c0,2.9-2.4,5.3-5.3,5.3c-2.9,0-5.3-2.4-5.3-5.3c0-2.9,2.4-5.3,5.3-5.3
			C70.5,105.9,72.9,108.3,72.9,111.2z"/>
	</g>
	<path fill="#999999" d="M32.6,121.4c-7.1-2.1-11.9-5.5-13.3-10.3c-2.2-7.5,11-16.1,23-24.7C33.1,100.7,28.1,113.8,32.6,121.4"/>
	<path fill="#999999" d="M59.1,172.2c-10.6-1.7-17.8-5.7-19.6-11.8c-1.3-4.5-2.6-8.1,1.6-13.4C43.2,158.1,49.7,165.7,59.1,172.2z"/>
	<path fill="#999999" d="M157.8,145.5c-10.5,9-26.7,19.4-46.6,25.3c-20.7,6.1-40.1,7.2-53.9,5c-6.6-1.8-9.5-3.2-13.2-6.3
		c14,13.7,29.5,32,77.5,15.7c20.6-7.4,42.5-21.2,49.1-56.2C166.2,137,157.8,145.5,157.8,145.5z"/>
	<path fill="#999999" d="M159.2,138.1c8.8-7.5,13.1-14.9,11.8-22.6c-0.9-5.1-4-8.1-11.5-10.2C164.2,114.2,165.8,120,159.2,138.1z"/>
	<g>
		<path fill="#999999" d="M171.2,57.9c-1.6-7.9-8-12.9-11.9-17.3l1.9,5.3c8.7,15.7-7.7,34.5-23.3,49.6
			c-10.4,8.8-24.8,19.6-44.3,25.4c-34.4,10.2-67.5,8.4-74-3.9c9.2,24.9,15.6,41.1,80.1,23.3C156.5,124.6,177.2,85.9,171.2,57.9z"/>
		<path fill="#999999" d="M160.7,42.5c-6.2-9.6-27.5-20.1-68.4-20.4l11.9,19.1c21.4-2.8,42.9-5.4,58.2,6.4L160.7,42.5z M101.1,29.2
			l-3-4.8l13,0.4l2.5,4L101.1,29.2z M117.7,28.8l-1.8-3.6l9.5,1.1l1.7,3.1L117.7,28.8z M130.4,29.6l-1.3-2.3c0,0,7.2,1.6,8.7,2.1
			l0.9,2.3L130.4,29.6z M141.5,32.2l-0.8-1.8l8.2,3.5l0.9,1.7L141.5,32.2z"/>
		<path fill="#999999" d="M155.1,38.3c1.2,0.8,1.2,1,3.8,2.9l-0.4-0.8c0,0-1.7-1.6-3.1-2.6c-2.2-1.6-4.4-2.9-4.4-2.9l0.9,1.4
			C151.9,36.2,153.8,37.4,155.1,38.3z"/>
	</g>
</g>
<g>
	<path fill="#999999" d="M226.3,96v20.6h20.5v-7l7.6,1.6v3.8c0,1.5-0.1,2.8-0.4,3.8c-0.3,1-0.7,1.8-1.4,2.4c-0.6,0.6-1.5,1-2.5,1.2
		c-1,0.2-2.3,0.3-3.8,0.3h-19.4c-1.5,0-2.8-0.1-3.8-0.3c-1-0.2-1.9-0.6-2.5-1.2c-0.6-0.6-1.1-1.4-1.4-2.4c-0.3-1-0.4-2.3-0.4-3.8
		V97.8c0-1.5,0.1-2.8,0.4-3.8c0.3-1,0.7-1.8,1.4-2.4c0.6-0.6,1.5-1,2.5-1.2c1-0.2,2.3-0.3,3.8-0.3h19.4c1.5,0,2.8,0.1,3.8,0.3
		c1,0.2,1.9,0.6,2.5,1.2c0.6,0.6,1.1,1.4,1.4,2.4c0.3,1,0.4,2.3,0.4,3.8v3.1l-7.6,1.2V96H226.3z"/>
	<path fill="#999999" d="M267.6,96h6.5v26.7h-6.5V96z"/>
	<path fill="#999999" d="M285.9,96h4.5l22.7,17.7V96h5.9v26.7h-4.5l-22.6-18v18h-5.9V96z"/>
	<path fill="#999999" d="M330.9,96h28.7v4.7h-22.1v5.8h12.9v4.6h-12.9v6.6h22.4v4.9h-29V96z"/>
	<path fill="#999999" d="M378.6,95.8v7h20.3c1.5,0,2.8,0.1,3.8,0.3c1.1,0.2,1.9,0.6,2.5,1.2c0.6,0.6,1.1,1.4,1.4,2.4
		c0.3,1,0.4,2.3,0.4,3.8v4.5c0,1.5-0.1,2.8-0.4,3.8c-0.3,1-0.7,1.8-1.4,2.4c-0.6,0.6-1.5,1-2.5,1.2c-1.1,0.2-2.3,0.3-3.8,0.3h-20.1
		c-1.5,0-2.8-0.1-3.9-0.3c-1-0.2-1.9-0.6-2.5-1.2c-0.6-0.6-1.1-1.4-1.4-2.4c-0.3-1-0.4-2.3-0.4-3.8v-0.9l6.7-1.4v3.9h23v-7.4H380
		c-1.5,0-2.8-0.1-3.8-0.3c-1-0.2-1.9-0.6-2.5-1.2c-0.6-0.6-1.1-1.4-1.4-2.4c-0.3-1-0.4-2.3-0.4-3.8v-3.6c0-1.5,0.1-2.8,0.4-3.8
		c0.3-1,0.7-1.8,1.4-2.4c0.6-0.6,1.5-1,2.5-1.2c1-0.2,2.3-0.3,3.8-0.3h18.5c1.4,0,2.7,0.1,3.7,0.3c1,0.2,1.9,0.6,2.5,1.1
		c0.7,0.5,1.1,1.3,1.4,2.2c0.3,0.9,0.4,2.1,0.4,3.5V98l-6.7,1.6v-3.7H378.6z"/>
	<path fill="#999999" d="M430.5,110.7L415.9,96h8.8l9.5,10l9.7-10h7.6L437,110.6v12.1h-6.5V110.7z"/>
	<path fill="#999999" d="M464.1,100.8v5.6h17.4c1.3,0,2.4,0.1,3.3,0.3c0.9,0.2,1.6,0.5,2.1,1s0.9,1.1,1.1,1.9
		c0.2,0.8,0.3,1.9,0.3,3.1v3.7c0,1.3-0.1,2.3-0.3,3.1c-0.2,0.8-0.6,1.4-1.1,1.9s-1.2,0.8-2.1,1c-0.9,0.2-2,0.3-3.3,0.3h-17.4
		c-1.4,0-2.5-0.1-3.4-0.3c-0.9-0.2-1.6-0.5-2.1-1c-0.5-0.5-0.9-1.1-1.2-1.9c-0.2-0.8-0.3-1.8-0.3-3.1v-0.8l5.9-1.1v3.2h19.6v-6.2
		h-17.3c-1.3,0-2.4-0.1-3.3-0.3c-0.9-0.2-1.6-0.5-2.2-1c-0.5-0.5-0.9-1.1-1.2-1.9c-0.2-0.8-0.3-1.9-0.3-3.1v-3
		c0-1.3,0.1-2.3,0.3-3.1c0.2-0.8,0.6-1.5,1.2-1.9c0.5-0.5,1.3-0.8,2.2-1c0.9-0.2,2-0.3,3.3-0.3h15.8c2.4,0,4.2,0.4,5.3,1.2
		c1.1,0.8,1.7,2.3,1.7,4.6v0.6l-5.6,1.2v-2.8H464.1z"/>
	<path fill="#999999" d="M496.8,102.6h14.7v6.5h-14.7V102.6z"/>
	<path fill="#999999" d="M522.6,94.1c0.3-1,0.7-1.8,1.4-2.4c0.6-0.6,1.5-1,2.5-1.2c1-0.2,2.3-0.3,3.8-0.3h24c1.5,0,2.8,0.1,3.8,0.3
		c1,0.2,1.9,0.6,2.5,1.2c0.6,0.6,1.1,1.4,1.4,2.4c0.3,1,0.4,2.3,0.4,3.8V115c0,1.5-0.1,2.8-0.4,3.8c-0.3,1-0.7,1.8-1.4,2.4
		c-0.6,0.6-1.5,1-2.5,1.2c-1,0.2-2.3,0.3-3.8,0.3h-24c-1.5,0-2.8-0.1-3.8-0.3c-1-0.2-1.9-0.6-2.5-1.2c-0.6-0.6-1.1-1.4-1.4-2.4
		c-0.3-1-0.4-2.3-0.4-3.8V97.8C522.2,96.3,522.3,95.1,522.6,94.1z M554.8,116.6V96h-25v20.6H554.8z"/>
	<path fill="#999999" d="M581.8,100.9v16.7h17.6v-5.7l6.6,1.3v3.2c0,1.3-0.1,2.3-0.3,3.1c-0.2,0.8-0.6,1.4-1.2,1.9
		c-0.5,0.5-1.3,0.8-2.2,1c-0.9,0.2-2,0.3-3.3,0.3h-16.7c-1.3,0-2.5-0.1-3.3-0.3c-0.9-0.2-1.6-0.5-2.1-1c-0.5-0.5-0.9-1.1-1.1-2
		c-0.2-0.8-0.3-1.8-0.3-3.1v-14.1c0-1.3,0.1-2.3,0.3-3.1c0.2-0.8,0.6-1.4,1.1-1.9c0.5-0.5,1.2-0.8,2.1-1c0.9-0.2,2-0.3,3.3-0.3h16.7
		c1.3,0,2.4,0.1,3.3,0.3c0.9,0.2,1.6,0.5,2.2,1c0.5,0.5,0.9,1.1,1.2,1.9c0.2,0.8,0.3,1.9,0.3,3.1v2.6l-6.6,0.9v-4.9H581.8z"/>
	<path fill="#999999" d="M616.6,96h28.7v4.7h-22.1v5.8H636v4.6h-12.9v6.6h22.4v4.9h-29V96z"/>
	<path fill="#999999" d="M666.8,96h6.2l16.1,26.7h-7.3l-3.3-5.9h-17.7l-3.4,5.9h-6.5L666.8,96z M675.8,111.9l-6.2-11.1l-6,11.1
		H675.8z"/>
	<path fill="#999999" d="M695.7,96h4.5l22.7,17.7V96h5.9v26.7h-4.5l-22.6-18v18h-5.9V96z"/>
	<path fill="#999999" d="M752.5,96h6.2l16.1,26.7h-7.3l-3.3-5.9h-17.7l-3.3,5.9h-6.5L752.5,96z M761.5,111.9l-6.2-11.1l-6,11.1
		H761.5z"/>
</g>
</svg>
